# xmcd
#
# Track frame offsets:
#	150
#	11612
#	24025
#	37450
#	54087
#	64875
#	76412
#	91175
#	102225
#	113700
#
# Disc length: 2038 seconds
#
# Revision: 2
# Processed by: cddbd v1.5.2PL0 Copyright (c) Steve Scherf et al.
# Submitted via: audiograbber 1.83.01
#
DISCID=7107f40a
DTITLE=Bullamakanka - In Search Of
DYEAR=1983
DGENRE=Country
TTITLE0=Bullas In Bilambil
TTITLE1=Gaylene
TTITLE2=Cobaki Creek
TTITLE3=Sunny days
TTITLE4=Dingo Hang Dog Blues
TTITLE5=R.B.T.
TTITLE6=Dr. Who
TTITLE7=Foggy Mountain Breakdown
TTITLE8=Election Day
TTITLE9=Breaker Trilogy
EXTD=
EXTT0=
EXTT1=
EXTT2=
EXTT3=
EXTT4=
EXTT5=
EXTT6=
EXTT7=
EXTT8=
EXTT9=
PLAYORDER=
